<svg viewBox="0 0 512 512" xmlns="http://www.w3.org/2000/svg">
  <g>
    <path fill="#fff" d="M152 148v349h353V380l63 21 4-13-67-21v-35l76 18 3-12-79-18V148H152zm14 13h326v156l-36-8 3-16c0-13-5-19-16-13l-29 19-6-1c6-10 14-19 12-27 1-5-7-5-9-1l-16 24v1l-49-11 5-11c5-7 11-23 5-26-5-3-14 3-21 9l-22 21-5-2 16-32c3-9 3-14 0-15-10-3-15 3-22 9l-30 30-6-1 7-15c3-10 3-14 1-16-6-3-16 3-27 16l-8 9-34-8-2 9 29 6-8 10-29-9-3 8 26 9-15 19c-5 6-9 8-12 9-32-78-25-152-25-152zm135 91c2 1 2 3 0 6l-6 14-13-2 2-2 17-16zm-45 3c1 1 1 3-1 8l-8-1 9-7zm-16 14 11 3-2 4-4 8-14-5 9-10zm94 3v6l-1 3-8-2c3-3 6-6 9-7zm-72 2 3 1-10 12 7-13zm13 4 15 3-4 8-4 7-18-6 11-12zm28 6 3 1-12 14 9-15zm-78 3 15 5-5 9a719 719 0 0 1-27 47l-13-25 4-3 26-33zm91 0 12 3-9 17-16-5 13-15zm24 6 49 12-13 21-47-15 11-18zm-83 5 20 6-9 16-18 32c-7 12-12 17-19 27l-1 1-16-22a361 361 0 0 1 43-60zm173 2h2c3 1 4 3 5 5l-13-3 6-2zm-28 8h2l-4 4 2-4zm11 2 26 6c0 3 2 6 7 5l4-2 42 10v34l-99-32a248 248 0 0 1 20-21zm-117 0 18 6a2317 2317 0 0 1-54 95 243 243 0 0 1-22-22 859 859 0 0 1 58-79zm28 10 47 15-22 35a238 238 0 0 1-58 65l-22-16a526 526 0 0 1 37-68l18-31zm61 20 107 35v108s-90 9-176-34c6-8 12-22 18-31a1103 1103 0 0 1 51-78zm-65 79c-6 9-12 16-15 25l-6-4 21-21z"/>
  </g>
</svg>