<svg>
  <g>
    <path d="m152.343 147.559v349.192h352.879v-117.11l63.2158 20.9326 3.10156-12.3057-66.3174-21.2158v-34.9541l75.9453 17.9746 3.07617-12.2031-79.0215-17.8594v-172.451h-352.879zm13.4463 13.4463h325.986v155.967l-35.6807-8.06445c2.04769-5.74006 2.9551-12.0613 2.81445-15.8154-0.23381-12.9701-4.90927-18.6892-15.6992-12.7227-9.7567 6.54002-20.055 12.305-28.9541 19.083l-6.26856-1.41699c6.01807-9.59978 13.5717-19.5036 12.2012-26.7148 0.34212-5.78846-6.98828-4.8351-9.25684-1.11426-5.07891 6.15506-8.74099 12.5258-15.4512 23.3594-0.28789 0.45275-0.58623 0.98194-0.875 1.44531l-49.0957-11.0957c1.97932-3.4147 3.96333-6.8859 5.95507-10.4473 4.0401-7.05455 10.4231-23.5424 4.74121-26.4111-5.49003-3.0978-14.1241 2.85626-21.0078 8.78027-9.3009 7.84897-16.2625 14.4786-22.1914 20.7324l-5.47071-1.23633c5.44682-9.7005 10.9068-19.8622 16.9434-32.7461 3.00418-8.65599 2.7107-13.6064-0.87988-14.8525-9.76213-2.44309-14.6163 3.69803-21.5 9.62207-9.95473 9.1296-20.4647 19.7352-29.8672 29.9971l-5.89062-1.33106c2.48682-4.93488 4.75878-10.0058 6.64453-15.3272 3.21872-9.27426 3.35065-13.9971 0.87793-15.2832-5.60541-2.91535-15.4983 2.86324-27.1113 15.459-2.57995 2.71102-5.27773 5.68366-8.10254 8.89356l-33.2275-7.50977-1.94922 8.42774 28.625 6.77441c-2.5257 2.99736-5.19203 6.21125-7.99316 9.66113l-29.3047-9.375-2.67676 8.22364 25.9766 8.60156c-4.75263 5.96724-9.80109 12.3832-15.502 19.7471-4.81317 5.88488-8.19409 7.25468-11.499 8.43262-31.6707-77.4173-25.3106-151.743-25.3106-151.743zm135.624 91.2422c1.19685 0.41538 1.15273 2.47878-0.13477 6.18848-1.17775 3.39348-3.36308 8.15525-6.37598 14.042l-12.6055-2.84863c0.52642-0.54098 1.06353-1.11413 1.58593-1.64356 7.07349-7.24367 12.9164-12.4903 17.5303-15.7383zm-45.29 2.98633c1.10677 0.72068 0.57803 2.9717-1.13867 7.91797-0.01465 0.04218-0.1048 0.22737-0.12305 0.27636l-7.40528-1.67285c2.99575-2.79591 6.16663-5.48376 8.667-6.52148zm-16.0234 14.1172 10.7734 2.5498c-0.63005 1.28245-1.04884 2.167-1.83106 3.73633-1.22804 2.46378-2.73954 5.31403-4.21289 8.11133l-13.5684-4.34082c2.88175-3.39001 5.82549-6.74132 8.83887-10.0566zm93.9199 2.21875c1.19686 0.41538 1.15174 2.47879-0.13574 6.18847-0.32065 0.9239-0.84706 2.12666-1.30371 3.23535l-7.78809-1.76074c3.46608-3.18871 6.57464-5.79556 9.22754-7.66308zm-72.2324 2.91406 3.35644 0.79492c-3.61068 4.13768-6.92131 8.104-9.8496 11.8174l-0.64454-0.20605c2.41941-4.11523 4.80901-8.24406 7.1377-12.4062zm13.0166 3.08105 15.4522 3.65723c-1.42134 2.59461-2.88037 5.24188-4.55274 8.17773-1.29474 2.10406-2.48432 4.17858-3.67285 6.25l-18.085-5.78613c3.70433-4.34419 7.32254-8.44073 10.8584-12.2988zm27.749 6.56739 2.98829 0.70703c-3.96626 4.63323-7.62406 9.24416-11.4619 14.1894 2.9164-5.19417 5.71279-10.0702 8.47363-14.8965zm-77.5117 2.73437 15.3721 5.08984c-1.61708 2.95361-3.17462 5.82597-5.01368 9.08106-5.32351 9.92931-11.4483 20.6194-18.373 32.0713-2.90833 5.01801-5.84857 9.86956-8.81153 14.6064-4.73202-8.22392-8.99512-16.5251-12.7539-24.8369 1.33078-0.84015 2.57834-1.92282 3.71094-3.23926 8.8567-11.2957 17.218-22.2074 25.8691-32.7725zm91.3506 0.54102 11.9385 2.82519c-2.42863 4.82335-5.57426 10.6221-9.32715 17.2451l-16.4023-5.24707c4.73842-5.34826 9.34298-10.3116 13.791-14.8232zm23.7686 5.625 48.7422 11.5361c-3.75382 6.50646-7.82665 13.6692-12.4521 21.2871l-46.9766-15.0283c3.55386-5.88767 7.11223-11.7702 10.6865-17.7949zm-82.7246 4.56054 19.8213 6.56348c-3.0732 5.60332-6.02975 11.0402-9.25196 16.2031-5.3235 9.9293-11.4473 20.6194-18.3721 32.0713-6.68538 11.5349-11.7806 16.6442-18.7549 26.6934-0.21772 0.38433-0.44463 0.7453-0.66699 1.11817-5.88626-7.41449-11.2494-15.0104-16.1279-22.7197 4.13851-7.07898 8.32408-14.0471 12.9971-20.9248 3.82143-5.60129 8.89695-12.4981 15.2275-20.6924 4.83348-5.96737 9.91915-12.1002 15.1279-18.3125zm172.198 2.54981c0.94354-0.06225 1.80407 0.04152 2.58203 0.31152 2.28601 0.99319 3.73395 2.42791 4.66699 4.11133l-12.4512-2.81445c1.94443-0.95837 3.68553-1.50835 5.20215-1.6084zm-27.2109 7.62597 1.79785 0.42579c-1.36723 1.27138-2.59609 2.51822-4.19726 4.21777 0.97029-1.75129 1.68982-3.23577 2.39941-4.64356zm10.2666 2.42969 25.9316 6.1377c0.62061 3.01946 2.47889 5.83085 7.54688 4.96484 1.41058-0.40383 2.68323-1.2146 3.84961-2.26758l41.7578 9.88282v33.834l-99.0762-31.6963c3.21458-3.76994 6.44867-7.40428 9.71582-10.8076 3.31458-3.67648 6.74783-7.00105 10.2744-10.0478zm-117.05 0.04492 18.3604 6.07911c-6.60511 11.6965-13.5552 23.7998-21.083 36.584-9.14495 15.5306-17.8362 30.5261-26.0732 44.9863-2.77085 5.03861-5.07773 9.44054-7.17187 13.5498-3.50128-3.11337-6.95461-6.34352-10.3389-9.72558-4.02551-4.02289-7.8441-8.13864-11.4971-12.3193 7.63281-12.3146 13.3136-20.9127 21.8506-33.4775 3.82144-5.60129 8.89795-12.4981 15.2285-20.6924 6.56252-8.10204 13.4703-16.4312 20.7246-24.9844zm28.5381 9.4502 46.6035 15.4307c-7.2825 11.8429-12.8514 20.4503-22.2441 34.3896-20.6825 30.4503-27.2841 39.9195-44.5527 55.1182-4.76264 4.3627-8.97124 7.67673-12.9893 10.5244-7.43781-4.77512-14.7576-10.0099-21.8955-15.7441 2.78287-5.95236 6.22236-12.7086 10.2002-20.3144 8.42686-15.7798 17.3202-31.7437 26.6797-47.8926 6.08568-11.1688 12.1394-21.4063 18.1982-31.5117zm61.2158 20.2695 106.382 35.2256v108.116s-90.2646 8.795-175.501-33.8066c6.18374-8.00071 11.7867-22.0108 17.6025-31.459 7.5933-12.6053 15.0907-24.5512 22.4941-35.8369 7.6181-11.904 15.142-23.1481 22.5703-33.7324 2.13756-2.92751 4.29019-5.74925 6.45214-8.50684zm-65.6982 78.7871c-5.30403 9.07762-11.9174 15.7741-14.4365 24.9424-2.15383-1.20028-4.301-2.43478-6.44141-3.70605 5.74064-5.44406 12.193-12.0411 20.8779-21.2363z"/>
  </g>
</svg>